<?xml version="1.0" encoding="utf-8"?>
<!-- Generator: Adobe Illustrator 22.1.0, SVG Export Plug-In . SVG Version: 6.00 Build 0)  -->
<svg version="1.1" id="Laag_1" xmlns="http://www.w3.org/2000/svg" xmlns:xlink="http://www.w3.org/1999/xlink" x="0px" y="0px"
	 viewBox="0 0 300 90" style="enable-background:new 0 0 300 90;" xml:space="preserve">
<style type="text/css">
	.st0{fill:#E73B6A;}
	.st1{font-family:'Raleway-Medium';}
	.st2{font-size:67.8551px;}
	.st3{font-family:'Raleway-Regular';}
</style>
<text transform="matrix(1 0 0 1 0.4102 70.7891)" class="st0 st1 st2">Winked</text>
<text transform="matrix(1 0 0 1 246.6102 70.7891)" class="st3 st2">ln</text>
<path d="M252.3,6.3c0.6-1.3,1.9-2.3,3.4-2.3c2,0,3.5,1.7,3.7,3.8c0,0,0.1,0.5-0.1,1.4c-0.3,1.3-1,2.4-1.9,3.2l-5,4.5l-4.9-4.5
	c-0.9-0.9-1.6-2-1.9-3.2c-0.2-0.9-0.1-1.4-0.1-1.4c0-2.1,1.5-3.8,3.5-3.8C250.5,4,251.7,4.9,252.3,6.3z"/>
</svg>
